<svg fill="#000000" xmlns="http://www.w3.org/2000/svg"  viewBox="0 0 48 48" width="24px" height="24px"><polyline fill="none" stroke="#000000" stroke-linecap="round" stroke-linejoin="round" stroke-miterlimit="10" stroke-width="4" points="46,33 40,39 34,33"/><path d="M42.05,16L42,38h-4l0.05-22c0-1.65-1.35-3-3-3H18.58c-0.23-0.56-0.58-1.08-1.04-1.54L15.08,9h19.97 C38.91,9,42.05,12.14,42.05,16z"/><polyline fill="none" stroke="#000000" stroke-linecap="round" stroke-linejoin="round" stroke-miterlimit="10" stroke-width="4" points="2,15 8,9 14,15"/><path d="M30.46,36.54C30,36.08,29.65,35.56,29.42,35H12.95c-1.65,0-3-1.35-3-2.99L10,10H6L5.95,32c0,3.86,3.14,7,7,7h19.97 L30.46,36.54z"/></svg>